<svg xmlns="http://www.w3.org/2000/svg" fill="none" viewBox="0 0 48 48"></svg><?xml version="1.0" encoding="UTF-8"?><svg width="25" height="25" viewBox="0 0 48 48" fill="none" xmlns="http://www.w3.org/2000/svg"><path d="M20 9H39.6977C42.0214 9 43.8561 10.9733 43.6871 13.2909L43.1038 21.2909C42.9513 23.3816 41.2107 25 39.1144 25H20V9Z" fill="#9c9d9e" stroke="#9c9d9e" stroke-width="3" stroke-linejoin="round"/><path d="M30.0909 25H39L34.9112 36.2443C34.3096 37.8987 32.7372 39 30.9769 39V39C28.0717 39 26.0497 36.1133 27.0425 33.383L30.0909 25Z" stroke="#9c9d9e" stroke-width="3" stroke-linejoin="round"/><rect x="14" y="12" width="6" height="10" fill="#9c9d9e" stroke="#9c9d9e" stroke-width="3" stroke-linejoin="round"/><path d="M14 17H4" stroke="#9c9d9e" stroke-width="3" stroke-linecap="round" stroke-linejoin="round"/></svg>
    <path stroke-linejoin="round" stroke-width="4" stroke="#666666"
        d="M20 9h19.698a4 4 0 0 1 3.99 4.29l-.584 8a4 4 0 0 1-3.99 3.71H20V9Z"
        data-follow-stroke="#666666" />
    <path stroke-linejoin="round" stroke-width="4" stroke="#666666"
        d="M30.09 25H39l-4.089 11.244A4.186 4.186 0 0 1 30.977 39c-2.905 0-4.927-2.887-3.934-5.617L30.09 25ZM14 12h6v10h-6z"
        data-follow-stroke="#666666" />
    <path stroke-linejoin="round" stroke-linecap="round" stroke-width="4" stroke="#666666"
        d="M14 17H4" data-follow-stroke="#666666" />
</svg>