<svg xmlns="http://www.w3.org/2000/svg" fill="none" viewBox="0 0 48 48"><path stroke-linejoin="round" stroke-linecap="round" stroke-width="4" stroke="#666666" d="M24 14a5 5 0 1 0 0-10 5 5 0 0 0 0 10ZM27 20h-6c-.929 0-1.393 0-1.784.038a8 8 0 0 0-7.178 7.178C12 27.607 12 28.07 12 29h24c0-.929 0-1.393-.038-1.784a8 8 0 0 0-7.178-7.178C28.393 20 27.93 20 27 20Z" data-follow-stroke="#666666"/><path stroke-linejoin="round" stroke-linecap="round" stroke-width="4" stroke="#666666" d="M41 26.784c1.902 1.224 3 2.669 3 4.216 0 4.418-8.954 8-20 8S4 35.418 4 31c0-1.547 1.098-2.992 3-4.216" data-follow-stroke="#666666"/><path stroke-linejoin="round" stroke-linecap="round" stroke-width="4" stroke="#666666" d="m19 34 5 5-5 5" data-follow-stroke="#666666"/></svg>